<mxfile host="" modified="2020-06-03T02:45:43.226Z" agent="5.0 (Macintosh; Intel Mac OS X 10_14_6) AppleWebKit/537.36 (KHTML, like Gecko) Code/1.45.1 Chrome/78.0.3904.130 Electron/7.2.4 Safari/537.36" etag="GQ7dyjOzCZggO4R76JaV" version="13.1.3" pages="2">
    <diagram id="6hGFLwfOUW9BJ-s0fimq" name="Class">
        <mxGraphModel dx="1271" dy="687" grid="1" gridSize="10" guides="1" tooltips="1" connect="1" arrows="1" fold="1" page="1" pageScale="1" pageWidth="750" pageHeight="500" background="none" math="0" shadow="0">
            <root>
                <mxCell id="0"/>
                <mxCell id="cNpNPP6aVxG1XG672JZR-27" value="BG" style="locked=1;" parent="0" visible="0"/>
                <mxCell id="cNpNPP6aVxG1XG672JZR-26" value="" style="rounded=0;whiteSpace=wrap;html=1;strokeColor=none;" parent="cNpNPP6aVxG1XG672JZR-27" vertex="1">
                    <mxGeometry width="750" height="500" as="geometry"/>
                </mxCell>
                <mxCell id="-WlxvF09k_HbYcOcLfEr-38" value="Diagram" parent="0"/>
                <mxCell id="-WlxvF09k_HbYcOcLfEr-43" value="&lt;p style=&quot;margin: 0px ; margin-top: 4px ; text-align: center&quot;&gt;&lt;b&gt;Component&lt;/b&gt;&lt;/p&gt;&lt;hr size=&quot;1&quot;&gt;&lt;p style=&quot;margin: 0px 0px 0px 4px ; font-size: 4px&quot;&gt;&lt;br&gt;&lt;/p&gt;&lt;hr size=&quot;1&quot;&gt;&lt;p style=&quot;margin: 0px ; margin-left: 4px&quot;&gt;getText&lt;/p&gt;&lt;p style=&quot;margin: 0px ; margin-left: 4px&quot;&gt;show&lt;/p&gt;" style="verticalAlign=top;align=left;overflow=fill;fontSize=12;fontFamily=Helvetica;html=1;" vertex="1" parent="-WlxvF09k_HbYcOcLfEr-38">
                    <mxGeometry x="280" y="40" width="160" height="90" as="geometry"/>
                </mxCell>
                <mxCell id="-WlxvF09k_HbYcOcLfEr-45" value="&lt;p style=&quot;margin: 0px ; margin-top: 4px ; text-align: center&quot;&gt;&lt;b&gt;Decorator&lt;/b&gt;&lt;/p&gt;&lt;hr size=&quot;1&quot;&gt;&lt;p style=&quot;margin: 0px ; margin-left: 4px&quot;&gt;# component&lt;/p&gt;&lt;hr size=&quot;1&quot;&gt;&lt;p style=&quot;margin: 0px ; margin-left: 4px&quot;&gt;&lt;br&gt;&lt;/p&gt;" style="verticalAlign=top;align=left;overflow=fill;fontSize=12;fontFamily=Helvetica;html=1;" vertex="1" parent="-WlxvF09k_HbYcOcLfEr-38">
                    <mxGeometry x="400" y="210" width="160" height="90" as="geometry"/>
                </mxCell>
                <mxCell id="-WlxvF09k_HbYcOcLfEr-46" value="&lt;p style=&quot;margin: 0px ; margin-top: 4px ; text-align: center&quot;&gt;&lt;b&gt;BoxDecorator&lt;/b&gt;&lt;/p&gt;&lt;hr size=&quot;1&quot;&gt;&lt;p style=&quot;margin: 0px 0px 0px 4px ; font-size: 4px&quot;&gt;&lt;br&gt;&lt;/p&gt;&lt;hr size=&quot;1&quot;&gt;&lt;p style=&quot;margin: 0px ; margin-left: 4px&quot;&gt;getText&lt;/p&gt;&lt;p style=&quot;margin: 0px ; margin-left: 4px&quot;&gt;setMessage&lt;/p&gt;" style="verticalAlign=top;align=left;overflow=fill;fontSize=12;fontFamily=Helvetica;html=1;" vertex="1" parent="-WlxvF09k_HbYcOcLfEr-38">
                    <mxGeometry x="280" y="380" width="160" height="90" as="geometry"/>
                </mxCell>
                <mxCell id="-WlxvF09k_HbYcOcLfEr-47" value="" style="endArrow=open;html=1;endSize=12;startArrow=diamondThin;startSize=14;startFill=0;edgeStyle=orthogonalEdgeStyle;align=left;verticalAlign=bottom;entryX=1.011;entryY=0.17;entryDx=0;entryDy=0;entryPerimeter=0;exitX=1.002;exitY=0.384;exitDx=0;exitDy=0;exitPerimeter=0;rounded=0;" edge="1" parent="-WlxvF09k_HbYcOcLfEr-38" source="-WlxvF09k_HbYcOcLfEr-45" target="-WlxvF09k_HbYcOcLfEr-43">
                    <mxGeometry x="-1" y="3" relative="1" as="geometry">
                        <mxPoint x="570" y="240" as="sourcePoint"/>
                        <mxPoint x="540" y="260" as="targetPoint"/>
                        <Array as="points">
                            <mxPoint x="620" y="245"/>
                            <mxPoint x="620" y="55"/>
                        </Array>
                    </mxGeometry>
                </mxCell>
                <mxCell id="-WlxvF09k_HbYcOcLfEr-44" value="&lt;p style=&quot;margin: 0px ; margin-top: 4px ; text-align: center&quot;&gt;&lt;b&gt;BookComponent&lt;/b&gt;&lt;/p&gt;&lt;hr size=&quot;1&quot;&gt;&lt;p style=&quot;margin: 0px 0px 0px 4px ; font-size: 4px&quot;&gt;&lt;br&gt;&lt;/p&gt;&lt;hr size=&quot;1&quot;&gt;&lt;p style=&quot;margin: 0px ; margin-left: 4px&quot;&gt;getText&lt;/p&gt;" style="verticalAlign=top;align=left;overflow=fill;fontSize=12;fontFamily=Helvetica;html=1;" vertex="1" parent="-WlxvF09k_HbYcOcLfEr-38">
                    <mxGeometry x="160" y="210" width="160" height="85" as="geometry"/>
                </mxCell>
                <mxCell id="-WlxvF09k_HbYcOcLfEr-63" style="edgeStyle=orthogonalEdgeStyle;rounded=0;orthogonalLoop=1;jettySize=auto;html=1;exitX=0;exitY=0.5;exitDx=0;exitDy=0;exitPerimeter=0;entryX=0.5;entryY=1;entryDx=0;entryDy=0;endArrow=block;endFill=0;endSize=10;startSize=6;" edge="1" parent="-WlxvF09k_HbYcOcLfEr-38" source="-WlxvF09k_HbYcOcLfEr-62" target="-WlxvF09k_HbYcOcLfEr-43">
                    <mxGeometry relative="1" as="geometry"/>
                </mxCell>
                <mxCell id="-WlxvF09k_HbYcOcLfEr-62" value="" style="strokeWidth=1;html=1;shape=mxgraph.flowchart.annotation_2;align=left;labelPosition=right;pointerEvents=1;direction=south;shadow=0;gradientColor=none;" vertex="1" parent="-WlxvF09k_HbYcOcLfEr-38">
                    <mxGeometry x="240" y="150" width="240" height="60" as="geometry"/>
                </mxCell>
                <mxCell id="H25STBme6L5vtdJ9_wg6-0" value="&lt;p style=&quot;margin: 0px ; margin-top: 4px ; text-align: center&quot;&gt;&lt;b&gt;RibbonDecorator&lt;/b&gt;&lt;/p&gt;&lt;hr size=&quot;1&quot;&gt;&lt;p style=&quot;margin: 0px 0px 0px 4px ; font-size: 4px&quot;&gt;&lt;br&gt;&lt;/p&gt;&lt;hr size=&quot;1&quot;&gt;&lt;p style=&quot;margin: 0px ; margin-left: 4px&quot;&gt;getText&lt;/p&gt;" style="verticalAlign=top;align=left;overflow=fill;fontSize=12;fontFamily=Helvetica;html=1;" vertex="1" parent="-WlxvF09k_HbYcOcLfEr-38">
                    <mxGeometry x="520" y="380" width="160" height="90" as="geometry"/>
                </mxCell>
                <mxCell id="H25STBme6L5vtdJ9_wg6-2" value="" style="strokeWidth=1;html=1;shape=mxgraph.flowchart.annotation_2;align=left;labelPosition=right;pointerEvents=1;direction=south;shadow=0;gradientColor=none;" vertex="1" parent="-WlxvF09k_HbYcOcLfEr-38">
                    <mxGeometry x="360" y="320" width="240" height="60" as="geometry"/>
                </mxCell>
                <mxCell id="H25STBme6L5vtdJ9_wg6-4" style="edgeStyle=orthogonalEdgeStyle;rounded=0;orthogonalLoop=1;jettySize=auto;html=1;exitX=0;exitY=0.5;exitDx=0;exitDy=0;exitPerimeter=0;startSize=6;endArrow=block;endFill=0;endSize=10;" edge="1" parent="-WlxvF09k_HbYcOcLfEr-38" source="H25STBme6L5vtdJ9_wg6-2">
                    <mxGeometry relative="1" as="geometry">
                        <mxPoint x="480" y="300" as="targetPoint"/>
                    </mxGeometry>
                </mxCell>
            </root>
        </mxGraphModel>
    </diagram>
    <diagram name="Base" id="V_nID2YeKOoaJHJB9zBE">
        <mxGraphModel dx="944" dy="687" grid="1" gridSize="10" guides="1" tooltips="1" connect="1" arrows="1" fold="1" page="1" pageScale="1" pageWidth="750" pageHeight="500" background="none" math="0" shadow="0">
            <root>
                <mxCell id="jIs4--3bAMLCsyNcwzRl-0"/>
                <mxCell id="jIs4--3bAMLCsyNcwzRl-1" value="BG" style="locked=1;" visible="0" parent="jIs4--3bAMLCsyNcwzRl-0"/>
                <mxCell id="jIs4--3bAMLCsyNcwzRl-2" value="" style="rounded=0;whiteSpace=wrap;html=1;strokeColor=none;" vertex="1" parent="jIs4--3bAMLCsyNcwzRl-1">
                    <mxGeometry width="750" height="500" as="geometry"/>
                </mxCell>
                <mxCell id="jIs4--3bAMLCsyNcwzRl-3" value="Diagram" parent="jIs4--3bAMLCsyNcwzRl-0"/>
                <mxCell id="jIs4--3bAMLCsyNcwzRl-4" value="&lt;p style=&quot;margin: 0px ; margin-top: 4px ; text-align: center&quot;&gt;&lt;b&gt;Component&lt;/b&gt;&lt;/p&gt;&lt;hr size=&quot;1&quot;&gt;&lt;p style=&quot;margin: 0px 0px 0px 4px ; font-size: 4px&quot;&gt;&lt;br&gt;&lt;/p&gt;&lt;hr size=&quot;1&quot;&gt;&lt;p style=&quot;margin: 0px ; margin-left: 4px&quot;&gt;method1&lt;/p&gt;&lt;p style=&quot;margin: 0px ; margin-left: 4px&quot;&gt;method2&lt;/p&gt;" style="verticalAlign=top;align=left;overflow=fill;fontSize=12;fontFamily=Helvetica;html=1;" vertex="1" parent="jIs4--3bAMLCsyNcwzRl-3">
                    <mxGeometry x="280" y="40" width="160" height="90" as="geometry"/>
                </mxCell>
                <mxCell id="jIs4--3bAMLCsyNcwzRl-5" value="&lt;p style=&quot;margin: 0px ; margin-top: 4px ; text-align: center&quot;&gt;&lt;b&gt;Decorator&lt;/b&gt;&lt;/p&gt;&lt;hr size=&quot;1&quot;&gt;&lt;p style=&quot;margin: 0px ; margin-left: 4px&quot;&gt;component&lt;/p&gt;&lt;hr size=&quot;1&quot;&gt;&lt;p style=&quot;margin: 0px ; margin-left: 4px&quot;&gt;&lt;br&gt;&lt;/p&gt;" style="verticalAlign=top;align=left;overflow=fill;fontSize=12;fontFamily=Helvetica;html=1;" vertex="1" parent="jIs4--3bAMLCsyNcwzRl-3">
                    <mxGeometry x="400" y="210" width="160" height="90" as="geometry"/>
                </mxCell>
                <mxCell id="jIs4--3bAMLCsyNcwzRl-6" value="&lt;p style=&quot;margin: 0px ; margin-top: 4px ; text-align: center&quot;&gt;&lt;b&gt;ConcreteDecorator&lt;/b&gt;&lt;/p&gt;&lt;hr size=&quot;1&quot;&gt;&lt;p style=&quot;margin: 0px 0px 0px 4px ; font-size: 4px&quot;&gt;&lt;br&gt;&lt;/p&gt;&lt;hr size=&quot;1&quot;&gt;&lt;p style=&quot;margin: 0px ; margin-left: 4px&quot;&gt;method1&lt;/p&gt;&lt;p style=&quot;margin: 0px ; margin-left: 4px&quot;&gt;method2&lt;/p&gt;" style="verticalAlign=top;align=left;overflow=fill;fontSize=12;fontFamily=Helvetica;html=1;" vertex="1" parent="jIs4--3bAMLCsyNcwzRl-3">
                    <mxGeometry x="400" y="360" width="160" height="90" as="geometry"/>
                </mxCell>
                <mxCell id="jIs4--3bAMLCsyNcwzRl-7" value="" style="endArrow=open;html=1;endSize=12;startArrow=diamondThin;startSize=14;startFill=0;edgeStyle=orthogonalEdgeStyle;align=left;verticalAlign=bottom;entryX=1.011;entryY=0.17;entryDx=0;entryDy=0;entryPerimeter=0;exitX=1.002;exitY=0.384;exitDx=0;exitDy=0;exitPerimeter=0;rounded=0;" edge="1" parent="jIs4--3bAMLCsyNcwzRl-3" source="jIs4--3bAMLCsyNcwzRl-5" target="jIs4--3bAMLCsyNcwzRl-4">
                    <mxGeometry x="-1" y="3" relative="1" as="geometry">
                        <mxPoint x="570" y="240" as="sourcePoint"/>
                        <mxPoint x="540" y="260" as="targetPoint"/>
                        <Array as="points">
                            <mxPoint x="620" y="245"/>
                            <mxPoint x="620" y="55"/>
                        </Array>
                    </mxGeometry>
                </mxCell>
                <mxCell id="jIs4--3bAMLCsyNcwzRl-8" value="&lt;p style=&quot;margin: 0px ; margin-top: 4px ; text-align: center&quot;&gt;&lt;b&gt;ConcreteComponent&lt;/b&gt;&lt;/p&gt;&lt;hr size=&quot;1&quot;&gt;&lt;p style=&quot;margin: 0px 0px 0px 4px ; font-size: 4px&quot;&gt;&lt;br&gt;&lt;/p&gt;&lt;hr size=&quot;1&quot;&gt;&lt;p style=&quot;margin: 0px ; margin-left: 4px&quot;&gt;method1&lt;/p&gt;&lt;p style=&quot;margin: 0px ; margin-left: 4px&quot;&gt;method2&lt;/p&gt;" style="verticalAlign=top;align=left;overflow=fill;fontSize=12;fontFamily=Helvetica;html=1;" vertex="1" parent="jIs4--3bAMLCsyNcwzRl-3">
                    <mxGeometry x="160" y="210" width="160" height="85" as="geometry"/>
                </mxCell>
                <mxCell id="jIs4--3bAMLCsyNcwzRl-9" style="edgeStyle=orthogonalEdgeStyle;rounded=0;orthogonalLoop=1;jettySize=auto;html=1;exitX=0;exitY=0.5;exitDx=0;exitDy=0;exitPerimeter=0;entryX=0.5;entryY=1;entryDx=0;entryDy=0;endArrow=block;endFill=0;endSize=10;startSize=6;" edge="1" parent="jIs4--3bAMLCsyNcwzRl-3" source="jIs4--3bAMLCsyNcwzRl-10" target="jIs4--3bAMLCsyNcwzRl-4">
                    <mxGeometry relative="1" as="geometry"/>
                </mxCell>
                <mxCell id="jIs4--3bAMLCsyNcwzRl-10" value="" style="strokeWidth=1;html=1;shape=mxgraph.flowchart.annotation_2;align=left;labelPosition=right;pointerEvents=1;direction=south;shadow=0;gradientColor=none;" vertex="1" parent="jIs4--3bAMLCsyNcwzRl-3">
                    <mxGeometry x="240" y="150" width="240" height="60" as="geometry"/>
                </mxCell>
                <mxCell id="jIs4--3bAMLCsyNcwzRl-11" value="" style="endArrow=block;endSize=10;endFill=0;html=1;exitX=0.5;exitY=0;exitDx=0;exitDy=0;entryX=0.5;entryY=1;entryDx=0;entryDy=0;" edge="1" parent="jIs4--3bAMLCsyNcwzRl-3" source="jIs4--3bAMLCsyNcwzRl-6" target="jIs4--3bAMLCsyNcwzRl-5">
                    <mxGeometry width="160" relative="1" as="geometry">
                        <mxPoint x="490" y="330" as="sourcePoint"/>
                        <mxPoint x="650" y="330" as="targetPoint"/>
                    </mxGeometry>
                </mxCell>
            </root>
        </mxGraphModel>
    </diagram>
</mxfile>